<?xml version="1.0" ?><svg viewBox="0 0 60 60" xmlns="http://www.w3.org/2000/svg"><title/><g id="colour"><path d="M49.4574,50.14282C44.05078,31.13867,44.65625,18,34,18c8-6,2-17-4-17S18,12,26,18C15.34375,18,15.94922,31.13867,10.5426,50.14282a3.99427,3.99427,0,0,0,.95544,3.89252C14.37195,56.97552,19.53558,59,22,59c0-19.89844,4-35,8-37,4,2,8,17.10156,8,37,2.46442,0,7.62805-2.02448,10.502-4.96466A3.99427,3.99427,0,0,0,49.4574,50.14282ZM30,15c-5,0-4-9,0-9S35,15,30,15Z" fill="#3a3a3a"/><path d="M10.65765,49.72845c-.03906.13885-.07538.2749-.11505.41437a3.99427,3.99427,0,0,0,.95544,3.89252C14.37195,56.97552,19.53558,59,22,59c0-1.04083.01343-2.06519.03473-3.07855-2.84686-.39093-7.98529-2.27588-10.53668-4.88611A3.87732,3.87732,0,0,1,10.65765,49.72845Z" fill="#2d2d2d"/><path d="M49.34235,49.72845a3.87732,3.87732,0,0,1-.84039,1.30688c-2.55139,2.61023-7.68982,4.49518-10.53668,4.88611C37.98657,56.93481,38,57.95917,38,59c2.46442,0,7.62805-2.02448,10.502-4.96466a3.99427,3.99427,0,0,0,.95544-3.89252C49.41772,50.00336,49.38141,49.86731,49.34235,49.72845Z" fill="#2d2d2d"/><path d="M30,6c4,0,5,9,0,9S26,6,30,6Z" fill="#2d2d2d"/><path d="M38,48.989a19.868,19.868,0,0,0-7.25725-.85606H29.23287c-2.484,0-5.02892-.011-7.23287.867,1.35158-15.10246,5.00454-24.772,8-27C32.99546,24.228,36.64842,33.89754,38,48.989Z" fill="#2d2d2d"/></g><g data-name="Layer 1" id="Layer_1"><path d="M50.41943,49.8695c-1.33838-4.70508-2.31348-9.07812-3.17334-12.9375-2.41992-10.8584-4.09717-18.38281-10.91357-19.71875A9.95872,9.95872,0,0,0,38.27393,7.1527C36.89258,3.00817,33.41309.00036,30,.00036S23.10742,3.00817,21.72608,7.1527a9.95872,9.95872,0,0,0,1.94141,10.06055C16.85108,18.54918,15.17383,26.0736,12.75391,36.932c-.85986,3.85938-1.835,8.23242-3.17334,12.9375a5.0073,5.0073,0,0,0,1.20215,4.86523C13.72852,57.7484,19.13477,60.00036,22,60.00036a.99974.99974,0,0,0,1-1c0-3.09833.09369-6.0293.26227-8.78284,1.5423-1.2207,3.6593-1.23083,6.09906-1.21912l.63867.002.6123-.001c2.446-.0108,4.57709-.00073,6.12555,1.21967C36.90637,52.97216,37,55.90258,37,59.00036a.99974.99974,0,0,0,1,1c2.86523,0,8.27148-2.252,11.2168-5.26562A5.00637,5.00637,0,0,0,50.41943,49.8695ZM30.605,46.99938l-.605.001-.63086-.002a14.68273,14.68273,0,0,0-5.93408.79669C24.53882,34.04119,27.54248,25.22484,30,23.19274c2.45776,2.03229,5.46167,10.84985,6.56525,24.60565A14.65111,14.65111,0,0,0,30.605,46.99938Zm17.18164,6.33691a18.54921,18.54921,0,0,1-8.791,4.56348c-.14258-18.39453-3.84619-34.44238-8.54834-36.79395a1.0011,1.0011,0,0,0-.89453,0C24.85059,23.45739,21.147,39.50524,21.0044,57.89977a18.55278,18.55278,0,0,1-8.7915-4.56348,3.00171,3.00171,0,0,1-.7085-2.91992c1.354-4.75977,2.33545-9.16406,3.20166-13.0498C17.47022,24.96325,19.105,19.00036,26,19.00036a.99988.99988,0,0,0,.6001-1.7998,8.07559,8.07559,0,0,1-2.97705-9.415C24.72266,4.48766,27.46387,2.00036,30,2.00036s5.27734,2.4873,6.377,5.78516a8.07559,8.07559,0,0,1-2.97705,9.415A.99988.99988,0,0,0,34,19.00036c6.895,0,8.52979,5.96289,11.29395,18.36621.86621,3.88574,1.84766,8.29,3.20166,13.0498A3.00076,3.00076,0,0,1,47.78662,53.33629Z"/><path d="M34.38525,10.87145c0-2.88574-1.64014-5.87109-4.38525-5.87109s-4.38525,2.98535-4.38525,5.87109c0,3.06738,1.76221,5.12891,4.38525,5.12891S34.38525,13.93883,34.38525,10.87145Zm-2.61914,2.27637A2.02537,2.02537,0,0,1,30,14.00036c-2.21338,0-2.38525-2.39453-2.38525-3.12891,0-1.86914.9585-3.87109,2.38525-3.87109s2.38525,2.002,2.38525,3.87109A3.94152,3.94152,0,0,1,31.76611,13.14782Z"/></g></svg>