<?xml version="1.0" ?><svg viewBox="0 0 60 60" xmlns="http://www.w3.org/2000/svg"><title/><g id="text"><text font-family="MyriadPro-Regular, Myriad Pro" font-size="9" transform="translate(6.72705 -49.60986)"><tspan letter-spacing="-0.00499em"/><tspan x="4.74316" y="0"/><tspan letter-spacing="-0.00298em" x="13.38281" y="10.7998"/><tspan letter-spacing="-0.00602em" x="17.79297" y="10.7998"/><tspan x="20.71777" y="10.7998"/></text></g><g id="colour"><path d="M54.26681,30.03a4.2761,4.2761,0,0,0-2.12-.53H48.33688a4.55919,4.55919,0,0,1-2.2301-.59l-4.93005-2.82a4.5871,4.5871,0,0,0-2.23-.59H34.5068a2.249,2.249,0,0,1-.58008-.07l-3.6499-.91-3.66.91a2.22515,2.22515,0,0,1-.56995.07h-4.45a4.58791,4.58791,0,0,0-2.2301.59l-4.92,2.82a4.59621,4.59621,0,0,1-2.24.59H8.40682a4.31408,4.31408,0,0,0-2.13.53c-3.77,2.11-5.14,6.25-3.74,11.14L5.97677,38.6a.49835.49835,0,0,1,.41-.09.47584.47584,0,0,1,.33.27c1.47,2.91,4.01,6.37,7.95,6.69C14.05685,44.08,20,57,26.62679,58.26a6.70226,6.70226,0,0,0,1.28992.24h4.71008a3.6585,3.6585,0,0,0,1.28992-.24C40,56,46.48678,44.08,45.87679,45.47c3.95007-.31,6.49-3.77,7.95007-6.69a.49361.49361,0,0,1,.75-.18l3.42993,2.57C59.40682,36.28,58.03683,32.14,54.26681,30.03ZM28,38a4.761,4.761,0,0,1-5,5,4.75027,4.75027,0,0,1-5-5c-.01-.04,0,.04,0,0a4.6929,4.6929,0,0,1,5-5,4.6929,4.6929,0,0,1,5,5C28,38.03,28.01,37.96,28,38Zm14,0a4.761,4.761,0,0,1-5,5,4.75027,4.75027,0,0,1-5-5c-.01-.04,0,.04,0,0a4.6929,4.6929,0,0,1,5-5,4.6929,4.6929,0,0,1,5,5C42,38.03,42.01,37.96,42,38Z" fill="#e269a0"/><path d="M6.005,32.53A4.31408,4.31408,0,0,1,8.135,32h3.79993a4.59621,4.59621,0,0,0,2.24-.59l4.92-2.82a4.58791,4.58791,0,0,1,2.2301-.59h4.45a2.22515,2.22515,0,0,0,.56995-.07l3.66-.91,3.6499.91A2.249,2.249,0,0,0,34.235,28h4.43994a4.5871,4.5871,0,0,1,2.23.59L45.835,31.41a4.55919,4.55919,0,0,0,2.2301.59H51.875a4.2761,4.2761,0,0,1,2.12.53,8.09577,8.09577,0,0,1,4.19794,6.316c.424-3.8595-1.04266-7.05-4.19794-8.816a4.2761,4.2761,0,0,0-2.12-.53H48.06506a4.55919,4.55919,0,0,1-2.2301-.59l-4.93005-2.82a4.5871,4.5871,0,0,0-2.23-.59H34.235a2.249,2.249,0,0,1-.58008-.07l-3.6499-.91-3.66.91a2.22515,2.22515,0,0,1-.56995.07h-4.45a4.58791,4.58791,0,0,0-2.2301.59l-4.92,2.82a4.59621,4.59621,0,0,1-2.24.59H8.135a4.31408,4.31408,0,0,0-2.13.53c-3.15527,1.766-4.62189,4.95648-4.19794,8.816A8.09577,8.09577,0,0,1,6.005,32.53Z" fill="#e589b7"/><path d="M41.7568,38.08212A5.12885,5.12885,0,0,1,36.8784,43,5.12414,5.12414,0,0,1,32,38.07009L36.8784,37Z" fill="#e0e0e0"/><path d="M27.7568,38.08212A5.12885,5.12885,0,0,1,22.8784,43,5.12414,5.12414,0,0,1,18,38.07009L22.8784,37Z" fill="#e0e0e0"/><path d="M39.89978,37.67017A5.04605,5.04605,0,0,1,35.12158,42a4.41652,4.41652,0,0,1-1.31042-.22058A4.58566,4.58566,0,0,0,36.87842,43a5.12884,5.12884,0,0,0,4.87836-4.91791Z" fill="#c9c8c7"/><path d="M21.12158,42a4.41652,4.41652,0,0,1-1.31042-.22058A4.58566,4.58566,0,0,0,22.87842,43a5.12884,5.12884,0,0,0,4.87836-4.91791l-1.857-.41193A5.04605,5.04605,0,0,1,21.12158,42Z" fill="#c9c8c7"/><path d="M57.735,38.91063l-3.42993-2.57a.49361.49361,0,0,0-.75.18c-1.46008,2.92-4,6.38-7.95007,6.69.61-1.39-5.87677,10.53-11.96008,12.79a3.65921,3.65921,0,0,1-1.28992.24H27.6449a6.70268,6.70268,0,0,1-1.28992-.24c-6.62677-1.26-12.56995-14.18005-11.96008-12.79-3.93994-.32-6.48-3.78-7.95-6.69a.47584.47584,0,0,0-.33-.27.49835.49835,0,0,0-.41.09l-3.43994,2.57a13.96873,13.96873,0,0,1-.45679-2.31439A12.24469,12.24469,0,0,0,2.265,41.43059l3.43994-2.57a.49835.49835,0,0,1,.41-.09.47584.47584,0,0,1,.33.27c1.47,2.91,4.01,6.37,7.95,6.69-.60986-1.39,5.33331,11.53,11.96008,12.79a6.70268,6.70268,0,0,0,1.28992.24H32.355a3.65921,3.65921,0,0,0,1.28992-.24c6.08331-2.26,12.57007-14.18005,11.96008-12.79,3.95007-.31,6.49-3.77,7.95007-6.69a.49361.49361,0,0,1,.75-.18l3.42993,2.57a12.24469,12.24469,0,0,0,.45679-4.83435A13.96873,13.96873,0,0,1,57.735,38.91063Z" fill="#ba5b93"/><path d="M41.73678,37.38l-4.77554-.98211a.64054.64054,0,0,0-.2077,0L32,37.38a4.89562,4.89562,0,0,1,9.73678,0Z" fill="#ba5b93"/><path d="M28,37.38l-4.90464-.98211a.67541.67541,0,0,0-.21332,0L18,37.38a5.04388,5.04388,0,0,1,10,0Z" fill="#ba5b93"/></g><g data-name="Layer 1" id="Layer_1"><path d="M54.72754,28.71826a5.84817,5.84817,0,0,0-2.85742-.71777H48.0625a3.00067,3.00067,0,0,1-1.48828-.39551l-4.9248-2.81348a6.01312,6.01312,0,0,0-2.97754-.791H34.23047a.899.899,0,0,1-.21191-.02539l-3.77637-.94434a.96875.96875,0,0,0-.48437,0l-3.77637.94434a.899.899,0,0,1-.21191.02539H21.32813a6.01312,6.01312,0,0,0-2.97754.791L13.42481,27.605a2.99437,2.99437,0,0,1-1.48733.39551H8.12988a5.84817,5.84817,0,0,0-2.85742.71777C.72363,31.27-.89453,36.481,1.05176,42.31689a.99978.99978,0,0,0,1.54785.4834L5.666,40.50049c2.31506,4.07922,5.36218,6.28406,8.873,6.46472C17.711,53.57458,22.22858,58.18878,25.7832,59.646a4.87328,4.87328,0,0,0,1.86328.35449h4.707a4.88681,4.88681,0,0,0,1.86523-.35449c3.55377-1.45795,8.0705-6.07214,11.24213-12.68079,3.5108-.18066,6.558-2.38544,8.87311-6.46472l3.06641,2.2998a.99978.99978,0,0,0,1.54785-.4834C60.89453,36.481,59.27637,31.27,54.72754,28.71826Zm2.709,11.60938-2.83691-2.127a.99906.99906,0,0,0-1.49414.35254c-1.29224,2.58447-3.457,5.60272-6.70032,6.29767.47839-1.17035.91516-2.38989,1.29407-3.66a4.00092,4.00092,0,0,0-.04785-2.39648l-.11719-.35156a1.99261,1.99261,0,0,1,.48438-2.04687l2.07031-2.07031a1.00465,1.00465,0,0,1,.835-.28711,2.52327,2.52327,0,0,1,2.18164,1.40918,1.00012,1.00012,0,0,0,1.78906-.89453,4.47766,4.47766,0,0,0-3.748-2.50293,2.998,2.998,0,0,0-2.47168.86133l-2.07031,2.07031a3.97746,3.97746,0,0,0-.9668,4.09375l.11719.35156a1.99561,1.99561,0,0,1,.02832,1.19141C43.10645,49.59033,37.43555,56.16455,33.46,57.79639a2.90666,2.90666,0,0,1-1.10645.2041h-4.707a2.9016,2.9016,0,0,1-1.10547-.2041c-3.97656-1.63086-9.64746-8.20508-12.32422-17.17773a1.99561,1.99561,0,0,1,.02832-1.19141l.11719-.35156a3.97907,3.97907,0,0,0-.96582-4.09375L11.3252,32.91162a3.01083,3.01083,0,0,0-2.4707-.86133,4.47991,4.47991,0,0,0-3.749,2.50293,1.00012,1.00012,0,0,0,1.78906.89453,2.52357,2.52357,0,0,1,2.18262-1.40918.997.997,0,0,1,.834.28711L11.98145,36.396a1.99013,1.99013,0,0,1,.48438,2.04688l-.11719.35156a4.00092,4.00092,0,0,0-.04785,2.39648c.37891,1.27008.81555,2.48962,1.29395,3.66-3.24329-.69495-5.408-3.7132-6.7002-6.29767a.99906.99906,0,0,0-1.49414-.35254l-2.83691,2.127C1.55176,35.981,2.88086,32.353,6.251,30.4624a3.85236,3.85236,0,0,1,1.87891-.46191h3.80759a5.00071,5.00071,0,0,0,2.48049-.65918l4.9248-2.81348a4.01519,4.01519,0,0,1,1.98535-.52734h4.44141a2.82705,2.82705,0,0,0,.69629-.08594L30,25.03174l3.53418.88281a2.82705,2.82705,0,0,0,.69629.08594h4.44141a4.01519,4.01519,0,0,1,1.98535.52734l4.92383,2.81348a5.007,5.007,0,0,0,2.48145.65918h3.80762a3.85236,3.85236,0,0,1,1.87891.46191C57.11914,32.353,58.44824,35.981,57.43652,40.32764Z"/><path d="M26.293,45.29346a.99964.99964,0,0,0,0,1.41406l3,3a.99964.99964,0,0,0,1.41406,0l3-3A.99989.99989,0,0,0,32.293,45.29346L30,47.58643l-2.293-2.293A.99964.99964,0,0,0,26.293,45.29346Z"/><path d="M35.707,50.29346a.99964.99964,0,0,0-1.41406,0,.98949.98949,0,0,0-.17792,1.14624c-1.72241,1.40417-6.50769,1.40417-8.2301,0a.98949.98949,0,0,0-.17792-1.14624.99964.99964,0,0,0-1.41406,0l-1,1a.98767.98767,0,0,0,1.18182,1.5683A8.66622,8.66622,0,0,0,30,54.50732a8.66622,8.66622,0,0,0,5.52521-1.64557.9902.9902,0,0,0,1.18182-1.5683Z"/><path d="M29,38.00049a6,6,0,1,0-6,6A6.00656,6.00656,0,0,0,29,38.00049Zm-6-4a3.99147,3.99147,0,0,1,3.77576,2.73541L23.19629,36.02c-.03265-.00641-.06616.00317-.09937,0A.94254.94254,0,0,0,23,36.00049a.94254.94254,0,0,0-.09692.01953c-.0332.00317-.06671-.00641-.09937,0l-3.57947.71588A3.99147,3.99147,0,0,1,23,34.00049ZM19.08124,38.804,22,38.22v.78046a1,1,0,0,0,2,0V38.22l2.91876.58392a4.00035,4.00035,0,0,1-7.83752,0Z"/><path d="M37,32.00049a6,6,0,1,0,6,6A6.00656,6.00656,0,0,0,37,32.00049Zm0,2a3.99147,3.99147,0,0,1,3.77576,2.73541L37.19629,36.02c-.03265-.00641-.06616.00317-.09937,0a.25026.25026,0,0,0-.19385,0c-.0332.00317-.06671-.00641-.09937,0l-3.57947.71588A3.99147,3.99147,0,0,1,37,34.00049Zm0,8A4.006,4.006,0,0,1,33.08124,38.804L36,38.22v.78046a1,1,0,0,0,2,0V38.22l2.91876.58392A4.006,4.006,0,0,1,37,42.00049Z"/></g></svg>