<?xml version="1.0" ?><svg viewBox="0 0 60 60" xmlns="http://www.w3.org/2000/svg"><title/><g id="text"><text font-family="MyriadPro-Regular, Myriad Pro" font-size="9" transform="translate(7.84473 -49.60986)"><tspan letter-spacing="-0.00602em" x="12.81592" y="0"/><tspan x="15.74072" y="0"/><tspan letter-spacing="0.00401em" x="20.24951" y="0"/><tspan x="23.22852" y="0"/></text></g><g id="colour"><path d="M50.88976,29.5042c-3.85667-.85137-8.17485-3.51822-11.72382-7.59038S33.56555,13.21571,33.24759,9.2769A19.54211,19.54211,0,0,0,29.873,9a20.76,20.76,0,0,0-12.59571,4.19517,13.97338,13.97338,0,0,1,.59493,1.6412A24.28147,24.28147,0,0,1,17.821,27.35021a30.75127,30.75127,0,0,1-.92316,3.0361l-.0102.01027A21.611,21.611,0,0,1,11,39.29985a21.19705,21.19705,0,0,0,8.86212,9.22124l.21548.35391c2.52408-3.10027,6.93542-5.76738,12.29815-7.05185,5.4465-1.30269,10.66738-.90264,14.3291.78976A20.73057,20.73057,0,0,0,50.9,30.02733C50.9,29.85291,50.9,29.67856,50.88976,29.5042Z" fill="#54271c"/><path d="M18.13636,27.63276a24.73221,24.73221,0,0,1-.89049,2.78362v.0104c-4.06152,3.80155-8.1121,5.775-11.47852,5.5569a6.57137,6.57137,0,0,1-4.59362-2.254v-.01033A27.03632,27.03632,0,0,1,1,30.593,28.84016,28.84016,0,0,1,10.64326,9.16531a6.10156,6.10156,0,0,1,1.99812.135c2.53029.61278,4.50673,2.81474,5.56014,6.2112A22.50938,22.50938,0,0,1,18.13636,27.63276Z" fill="#472119"/><path d="M16,31c-2.97152,6.78657-7.818,10.962-12.09427,9.80939a5.687,5.687,0,0,1-1.40354-.5881A35.3772,35.3772,0,0,1,1,34.08162,7.27215,7.27215,0,0,0,5.32018,35.9047a5.25895,5.25895,0,0,0,.614.02355C8.2917,35.92824,11.71275,34.952,16,31Z" fill="#331512"/><path d="M48.72127,45.25058C38.99469,42.41273,25.44354,45.58222,18.00134,56c-.1034-5.67576,5.78839-11.7814,13.91283-14.091C39.067,39.86972,45.78575,41.38076,48.72127,45.25058Z" fill="#331512"/><path d="M50.92435,49.77666l.06191.01069A28.83659,28.83659,0,0,1,29.93721,59,28.471,28.471,0,0,1,19.65,57.07849h-.01033A5.75419,5.75419,0,0,1,19,55.58394v-.01069c7.32586-9.69305,21.66811-12.40452,31.36713-9.42617a5.48636,5.48636,0,0,1,.485,1.32377A6.16933,6.16933,0,0,1,50.92435,49.77666Z" fill="#472119"/><path d="M59,29.53425A29.2883,29.2883,0,0,1,51.40069,49.19a6.40923,6.40923,0,0,0-.19319-1.36134A7.96906,7.96906,0,0,0,47,42.865a21.84534,21.84534,0,0,0,4.48658-13.33073c0-.11518,0-.23042-.01074-.34559a12.59359,12.59359,0,0,0,1.63151.11518A7.84045,7.84045,0,0,0,58.29162,27.576,6.06619,6.06619,0,0,0,58.88195,27,24.76134,24.76134,0,0,1,59,29.53425Z" fill="#54271c"/><path d="M59,26.226a5.29957,5.29957,0,0,1-1.11454,1.29112c-4.05485,3.43956-12.32374.692-18.43787-6.1354A26.21535,26.21535,0,0,1,35,14.61625,9.90807,9.90807,0,0,1,44.59574,5,29.46733,29.46733,0,0,1,59,26.226Z" fill="#472119"/><path d="M43,4.57144C38.87,5.48726,35.57,9.23287,34.68,14,33.51,9.42077,33.9,5.28767,36.11,3.02152A5.61525,5.61525,0,0,1,37.47,2,24.90969,24.90969,0,0,1,43,4.57144Z" fill="#331512"/><path d="M36.76,1.752a5.65043,5.65043,0,0,0-.63462.49414,8.49854,8.49854,0,0,0-2.48654,6.54256A20.77694,20.77694,0,0,0,30.268,8.52015,21.64814,21.64814,0,0,0,17.0343,13a8.03837,8.03837,0,0,0-5.01468-4.44765A6.52723,6.52723,0,0,0,11,8.38049,28.92683,28.92683,0,0,1,30.268,1,28.20259,28.20259,0,0,1,36.76,1.752Z" fill="#54271c"/><path d="M19.98,48.80135A22.98219,22.98219,0,0,1,10.45926,39a9.11,9.11,0,0,1-5.31289,1.9412,6.99768,6.99768,0,0,1-1.61507-.19093A5.05442,5.05442,0,0,1,3,40.59113,30.44058,30.44058,0,0,0,18.77926,56.46a7.682,7.682,0,0,1-.26564-.838C17.94692,53.264,19.98,48.80135,19.98,48.80135Z" fill="#54271c"/></g><g data-name="Layer 1" id="Layer_1"><path d="M45.125,4.10833V4.06286c-.02454,0-.04822.00348-.07269.00366A29.81585,29.81585,0,0,0,37.708,1.0089L37.68115.92907c-.03662.01233-.07062.02887-.10693.04175A29.96011,29.96011,0,0,0,.2215,33.584a57.02349,57.02349,0,0,0,1.7912,7.2l-.03174.04742c.02069.01385.0437.02209.06451.03571A29.9937,29.9937,0,1,0,45.125,4.10833Zm12.58209,21.871a4.9255,4.9255,0,0,1-.85651,1.01715c-3.54492,3.09375-11.17627.39355-16.66211-5.89453A24.54,24.54,0,0,1,36.1366,14.7318a8.94248,8.94248,0,0,1,8.42065-8.6405A28.053,28.053,0,0,1,57.70709,25.9793ZM50,30.00036a19.76848,19.76848,0,0,1-3.72943,11.60577c-3.62518-1.54517-8.63342-1.86072-13.94684-.58917a23.18353,23.18353,0,0,0-11.89667,6.54523,20.19593,20.19593,0,0,1-8.17468-8.36664,23.37054,23.37054,0,0,0,6.48541-11.68347,24.151,24.151,0,0,0,.04346-12.46094c-.13251-.44586-.28259-.86993-.44391-1.27887A19.76872,19.76872,0,0,1,30,10.00036a20.20442,20.20442,0,0,1,2.78754.2157,23.205,23.205,0,0,0,5.8941,12.20032,23.2014,23.2014,0,0,0,11.31665,7.51147C49.99835,29.95214,50,29.97606,50,30.00036ZM32.78955,42.96227c5.616-1.34418,11.06842-.691,14.25964,1.35406-8.8808-1.46741-20.1687,1.00146-27.13989,8.14215C20.95386,48.54863,26.13275,44.55639,32.78955,42.96227ZM3.65527,39.48064a27.73856,27.73856,0,0,1-1.06366-3.75049,7.48558,7.48558,0,0,0,3.1911.95184c.19092.01367.39111.02148.6001.02148a13.2925,13.2925,0,0,0,7.574-2.80652c-2.6026,4.2475-6.18756,6.752-9.30981,5.9657A4.84987,4.84987,0,0,1,3.65527,39.48064ZM34.94635,10.84142c-.52808-2.9809-.0296-5.56915,1.666-7.0481a4.88747,4.88747,0,0,1,1.108-.7019A27.77565,27.77565,0,0,1,41.748,4.59331,11.00675,11.00675,0,0,0,34.94635,10.84142Zm.16541-8.36505a8.14075,8.14075,0,0,0-2.39722,5.7113A22.17088,22.17088,0,0,0,30,8.00036a21.74628,21.74628,0,0,0-12.56012,3.95392A7.95024,7.95024,0,0,0,12.629,8.06444,27.8643,27.8643,0,0,1,35.11176,2.47637ZM10.55982,9.87719a4.92219,4.92219,0,0,1,1.54126.1134c2.15186.53613,3.84375,2.53613,4.76318,5.62988a22.1429,22.1429,0,0,1-.06689,11.40723,25.91742,25.91742,0,0,1-.77533,2.52051c-3.59949,3.51611-7.17169,5.35114-10.09772,5.13867a5.4774,5.4774,0,0,1-3.78308-1.87469Q2.00226,31.4247,2,30.00036A27.91318,27.91318,0,0,1,10.55982,9.87719ZM4.65967,41.89562a7.03331,7.03331,0,0,0,1.19873.11548,8.79562,8.79562,0,0,0,4.79138-1.56781,22.218,22.218,0,0,0,8.55585,8.71729,8.12912,8.12912,0,0,0-1.34729,6.06775A28.17852,28.17852,0,0,1,4.65967,41.89562ZM30,58.00036a27.86982,27.86982,0,0,1-9.6109-1.69952,4.95491,4.95491,0,0,1-.41064-.90533c6.948-8.68085,20.30725-11.13257,29.4657-8.50623a4.76,4.76,0,0,1,.33807.93042,5.00256,5.00256,0,0,1,.07013,1.90491A27.91226,27.91226,0,0,1,30,58.00036Zm21.77-10.418c-.01538-.07562-.02454-.15234-.04248-.22748a7.93056,7.93056,0,0,0-3.6759-4.80225A21.72439,21.72439,0,0,0,51.989,30.27019c.32361.02844.644.04657.95831.04657A7.80481,7.80481,0,0,0,57.966,28.66094c.021.44409.034.89026.034,1.33942A27.86226,27.86226,0,0,1,51.77,47.58233Z"/></g></svg>